<mxfile host="app.diagrams.net" modified="2021-04-17T06:24:06.811Z" agent="5.0 (Windows NT 10.0; Win64; x64) AppleWebKit/537.36 (KHTML, like Gecko) Chrome/89.0.4389.128 Safari/537.36" etag="BVLf_ua6Dx4VYzTTdLT9" version="14.6.0" type="github">
  <diagram id="L2BbMPVDHjmshO37vZ8R" name="Page-1">
    <mxGraphModel dx="2622" dy="762" grid="0" gridSize="10" guides="1" tooltips="1" connect="1" arrows="1" fold="1" page="0" pageScale="1" pageWidth="827" pageHeight="1169" math="0" shadow="0">
      <root>
        <mxCell id="0" />
        <mxCell id="1" parent="0" />
        <mxCell id="YRLhvt7IBqFvnjAQy7cZ-10" value="" style="edgeStyle=orthogonalEdgeStyle;rounded=0;orthogonalLoop=1;jettySize=auto;html=1;fontSize=12;strokeWidth=1;" parent="1" source="YRLhvt7IBqFvnjAQy7cZ-1" target="YRLhvt7IBqFvnjAQy7cZ-9" edge="1">
          <mxGeometry relative="1" as="geometry" />
        </mxCell>
        <mxCell id="YRLhvt7IBqFvnjAQy7cZ-1" value="&lt;font style=&quot;font-size: 12px;&quot;&gt;帧离开流过滤器&lt;/font&gt;" style="rounded=0;whiteSpace=wrap;html=1;fontSize=12;strokeWidth=1;" parent="1" vertex="1">
          <mxGeometry x="290" y="83" width="180" height="30" as="geometry" />
        </mxCell>
        <mxCell id="YRLhvt7IBqFvnjAQy7cZ-27" value="" style="edgeStyle=orthogonalEdgeStyle;rounded=0;orthogonalLoop=1;jettySize=auto;html=1;fontSize=12;strokeWidth=1;" parent="1" source="YRLhvt7IBqFvnjAQy7cZ-4" target="YRLhvt7IBqFvnjAQy7cZ-26" edge="1">
          <mxGeometry relative="1" as="geometry" />
        </mxCell>
        <mxCell id="YRLhvt7IBqFvnjAQy7cZ-4" value="&lt;font style=&quot;font-size: 12px;&quot;&gt;丢弃数据帧&lt;/font&gt;" style="rounded=0;whiteSpace=wrap;html=1;fontSize=12;strokeWidth=1;" parent="1" vertex="1">
          <mxGeometry x="300" y="220" width="160" height="30" as="geometry" />
        </mxCell>
        <mxCell id="YRLhvt7IBqFvnjAQy7cZ-20" value="" style="edgeStyle=orthogonalEdgeStyle;rounded=0;orthogonalLoop=1;jettySize=auto;html=1;entryX=1;entryY=0.5;entryDx=0;entryDy=0;fontSize=12;strokeWidth=1;" parent="1" source="YRLhvt7IBqFvnjAQy7cZ-5" target="YRLhvt7IBqFvnjAQy7cZ-4" edge="1">
          <mxGeometry relative="1" as="geometry">
            <mxPoint x="600" y="265" as="targetPoint" />
            <Array as="points">
              <mxPoint x="600" y="235" />
            </Array>
          </mxGeometry>
        </mxCell>
        <mxCell id="YRLhvt7IBqFvnjAQy7cZ-21" value="是" style="edgeLabel;html=1;align=center;verticalAlign=middle;resizable=0;points=[];fontSize=12;" parent="YRLhvt7IBqFvnjAQy7cZ-20" vertex="1" connectable="0">
          <mxGeometry x="-0.0537" y="-2" relative="1" as="geometry">
            <mxPoint as="offset" />
          </mxGeometry>
        </mxCell>
        <mxCell id="YRLhvt7IBqFvnjAQy7cZ-23" value="否" style="edgeStyle=orthogonalEdgeStyle;rounded=0;orthogonalLoop=1;jettySize=auto;html=1;fontSize=12;strokeWidth=1;" parent="1" source="YRLhvt7IBqFvnjAQy7cZ-5" target="YRLhvt7IBqFvnjAQy7cZ-22" edge="1">
          <mxGeometry relative="1" as="geometry" />
        </mxCell>
        <mxCell id="YRLhvt7IBqFvnjAQy7cZ-5" value="&lt;font style=&quot;font-size: 12px;&quot;&gt;&lt;span style=&quot;font-size: 12px;&quot;&gt;帧SDU大小是否大于&lt;br style=&quot;font-size: 12px;&quot;&gt;&lt;/span&gt;SDU大小限制&lt;/font&gt;" style="rhombus;whiteSpace=wrap;html=1;fontSize=12;strokeWidth=1;" parent="1" vertex="1">
          <mxGeometry x="510" y="138" width="180" height="60" as="geometry" />
        </mxCell>
        <mxCell id="YRLhvt7IBqFvnjAQy7cZ-31" value="是" style="edgeStyle=orthogonalEdgeStyle;rounded=0;orthogonalLoop=1;jettySize=auto;html=1;fontSize=12;strokeWidth=1;" parent="1" target="YRLhvt7IBqFvnjAQy7cZ-30" edge="1">
          <mxGeometry x="0.1919" relative="1" as="geometry">
            <mxPoint x="673" y="295" as="sourcePoint" />
            <mxPoint as="offset" />
          </mxGeometry>
        </mxCell>
        <mxCell id="YRLhvt7IBqFvnjAQy7cZ-32" value="否" style="edgeStyle=orthogonalEdgeStyle;rounded=0;orthogonalLoop=1;jettySize=auto;html=1;fontSize=12;strokeWidth=1;entryX=-0.013;entryY=0.464;entryDx=0;entryDy=0;entryPerimeter=0;" parent="1" target="YRLhvt7IBqFvnjAQy7cZ-35" edge="1">
          <mxGeometry x="-0.1127" relative="1" as="geometry">
            <mxPoint x="699" y="244" as="targetPoint" />
            <Array as="points">
              <mxPoint x="583" y="244" />
            </Array>
            <mxPoint x="583" y="270" as="sourcePoint" />
            <mxPoint as="offset" />
          </mxGeometry>
        </mxCell>
        <mxCell id="YRLhvt7IBqFvnjAQy7cZ-17" value="是" style="edgeStyle=orthogonalEdgeStyle;rounded=0;orthogonalLoop=1;jettySize=auto;html=1;fontSize=12;strokeWidth=1;" parent="1" source="YRLhvt7IBqFvnjAQy7cZ-9" target="YRLhvt7IBqFvnjAQy7cZ-4" edge="1">
          <mxGeometry relative="1" as="geometry" />
        </mxCell>
        <mxCell id="YRLhvt7IBqFvnjAQy7cZ-18" value="否" style="edgeStyle=orthogonalEdgeStyle;rounded=0;orthogonalLoop=1;jettySize=auto;html=1;fontSize=12;strokeWidth=1;" parent="1" source="YRLhvt7IBqFvnjAQy7cZ-9" target="YRLhvt7IBqFvnjAQy7cZ-5" edge="1">
          <mxGeometry relative="1" as="geometry" />
        </mxCell>
        <mxCell id="YRLhvt7IBqFvnjAQy7cZ-9" value="&lt;font style=&quot;font-size: 12px;&quot;&gt;该流的流阻塞值&lt;br style=&quot;font-size: 12px;&quot;&gt;是否为True&lt;/font&gt;" style="rhombus;whiteSpace=wrap;html=1;fontSize=12;strokeWidth=1;" parent="1" vertex="1">
          <mxGeometry x="290" y="143" width="180" height="50" as="geometry" />
        </mxCell>
        <mxCell id="YRLhvt7IBqFvnjAQy7cZ-34" value="" style="edgeStyle=orthogonalEdgeStyle;rounded=0;orthogonalLoop=1;jettySize=auto;html=1;entryX=0.5;entryY=0;entryDx=0;entryDy=0;fontSize=12;strokeWidth=1;" parent="1" source="YRLhvt7IBqFvnjAQy7cZ-22" target="YRLhvt7IBqFvnjAQy7cZ-29" edge="1">
          <mxGeometry relative="1" as="geometry">
            <mxPoint x="750" y="85" as="targetPoint" />
          </mxGeometry>
        </mxCell>
        <mxCell id="YRLhvt7IBqFvnjAQy7cZ-22" value="&lt;span style=&quot;font-size: 12px;&quot;&gt;通过&lt;/span&gt;&lt;span lang=&quot;EN-US&quot; style=&quot;font-size: 12px; font-family: &amp;quot;times new roman&amp;quot;, serif;&quot;&gt;SDU&lt;/span&gt;&lt;span style=&quot;font-size: 12px;&quot;&gt;计数器加一&lt;/span&gt;" style="rounded=0;whiteSpace=wrap;html=1;fontSize=12;strokeWidth=1;" parent="1" vertex="1">
          <mxGeometry x="535" y="83" width="130" height="30" as="geometry" />
        </mxCell>
        <mxCell id="YRLhvt7IBqFvnjAQy7cZ-28" value="" style="edgeStyle=orthogonalEdgeStyle;rounded=0;orthogonalLoop=1;jettySize=auto;html=1;fontSize=12;strokeWidth=1;" parent="1" source="YRLhvt7IBqFvnjAQy7cZ-26" edge="1">
          <mxGeometry relative="1" as="geometry">
            <mxPoint x="493" y="295" as="targetPoint" />
          </mxGeometry>
        </mxCell>
        <mxCell id="YRLhvt7IBqFvnjAQy7cZ-26" value="&lt;span style=&quot;font-size: 12px;&quot;&gt;未通过&lt;/span&gt;&lt;span lang=&quot;EN-US&quot; style=&quot;font-size: 12px; font-family: &amp;quot;times new roman&amp;quot;, serif;&quot;&gt;SDU&lt;/span&gt;&lt;span style=&quot;font-size: 12px;&quot;&gt;计数器加一&lt;/span&gt;" style="rounded=0;whiteSpace=wrap;html=1;fontSize=12;strokeWidth=1;" parent="1" vertex="1">
          <mxGeometry x="297.5" y="280" width="165" height="30" as="geometry" />
        </mxCell>
        <mxCell id="YRLhvt7IBqFvnjAQy7cZ-29" value="&lt;span style=&quot;font-size: 12px;&quot;&gt;传入后续流门控组件&lt;/span&gt;" style="rounded=0;whiteSpace=wrap;html=1;fontSize=12;strokeWidth=1;" parent="1" vertex="1">
          <mxGeometry x="703" y="175" width="132" height="30" as="geometry" />
        </mxCell>
        <mxCell id="YRLhvt7IBqFvnjAQy7cZ-30" value="&lt;span style=&quot;font-size: 12px;&quot;&gt;将该流的&lt;/span&gt;&lt;span style=&quot;font-size: 12px;&quot;&gt;流阻塞设置为TRUE&lt;/span&gt;" style="rounded=0;whiteSpace=wrap;html=1;fontSize=12;strokeWidth=1;" parent="1" vertex="1">
          <mxGeometry x="703.5" y="275" width="132" height="40" as="geometry" />
        </mxCell>
        <mxCell id="YRLhvt7IBqFvnjAQy7cZ-35" value="&lt;span style=&quot;font-size: 12px&quot;&gt;结束&lt;/span&gt;" style="rounded=0;whiteSpace=wrap;html=1;fontSize=12;strokeWidth=1;" parent="1" vertex="1">
          <mxGeometry x="703.5" y="230" width="131" height="30" as="geometry" />
        </mxCell>
        <mxCell id="fiQEdym8BqDknh4oqblj-5" value="&lt;span style=&quot;font-size: 12px;&quot;&gt;传入后续流门控组件&lt;/span&gt;" style="rounded=0;whiteSpace=wrap;html=1;fontSize=12;strokeWidth=1;" parent="1" vertex="1">
          <mxGeometry x="703" y="175" width="132" height="30" as="geometry" />
        </mxCell>
        <mxCell id="fiQEdym8BqDknh4oqblj-6" value="&lt;span style=&quot;font-size: 12px&quot;&gt;结束&lt;/span&gt;" style="rounded=0;whiteSpace=wrap;html=1;fontSize=12;strokeWidth=1;" parent="1" vertex="1">
          <mxGeometry x="703.5" y="230" width="131" height="30" as="geometry" />
        </mxCell>
        <mxCell id="fiQEdym8BqDknh4oqblj-7" value="&lt;span style=&quot;font-size: 12px;&quot;&gt;将该流的&lt;/span&gt;&lt;span style=&quot;font-size: 12px;&quot;&gt;流阻塞设置为TRUE&lt;/span&gt;" style="rounded=0;whiteSpace=wrap;html=1;fontSize=12;strokeWidth=1;" parent="1" vertex="1">
          <mxGeometry x="703.5" y="275" width="132" height="40" as="geometry" />
        </mxCell>
        <mxCell id="fiQEdym8BqDknh4oqblj-8" value="" style="edgeStyle=orthogonalEdgeStyle;rounded=0;orthogonalLoop=1;jettySize=auto;html=1;entryX=0.5;entryY=0;entryDx=0;entryDy=0;fontSize=12;strokeWidth=1;" parent="1" target="fiQEdym8BqDknh4oqblj-5" edge="1">
          <mxGeometry relative="1" as="geometry">
            <mxPoint x="750" y="85" as="targetPoint" />
            <mxPoint x="665" y="98" as="sourcePoint" />
          </mxGeometry>
        </mxCell>
        <mxCell id="fiQEdym8BqDknh4oqblj-9" value="否" style="edgeStyle=orthogonalEdgeStyle;rounded=0;orthogonalLoop=1;jettySize=auto;html=1;fontSize=12;strokeWidth=1;entryX=-0.013;entryY=0.464;entryDx=0;entryDy=0;entryPerimeter=0;" parent="1" target="fiQEdym8BqDknh4oqblj-6" edge="1">
          <mxGeometry x="-0.1127" relative="1" as="geometry">
            <mxPoint x="699" y="244" as="targetPoint" />
            <Array as="points">
              <mxPoint x="583" y="244" />
            </Array>
            <mxPoint x="583" y="270" as="sourcePoint" />
            <mxPoint as="offset" />
          </mxGeometry>
        </mxCell>
        <mxCell id="fiQEdym8BqDknh4oqblj-11" value="是" style="edgeStyle=orthogonalEdgeStyle;rounded=0;orthogonalLoop=1;jettySize=auto;html=1;fontSize=12;strokeWidth=1;" parent="1" target="fiQEdym8BqDknh4oqblj-7" edge="1">
          <mxGeometry x="0.1919" relative="1" as="geometry">
            <mxPoint x="673" y="295" as="sourcePoint" />
            <mxPoint as="offset" />
          </mxGeometry>
        </mxCell>
        <mxCell id="fiQEdym8BqDknh4oqblj-12" value="" style="edgeStyle=orthogonalEdgeStyle;rounded=0;orthogonalLoop=1;jettySize=auto;html=1;fontSize=12;strokeWidth=1;" parent="1" source="fiQEdym8BqDknh4oqblj-13" edge="1">
          <mxGeometry relative="1" as="geometry">
            <mxPoint x="493" y="295" as="targetPoint" />
          </mxGeometry>
        </mxCell>
        <mxCell id="fiQEdym8BqDknh4oqblj-13" value="&lt;span style=&quot;font-size: 12px;&quot;&gt;未通过&lt;/span&gt;&lt;span lang=&quot;EN-US&quot; style=&quot;font-size: 12px; font-family: &amp;quot;times new roman&amp;quot;, serif;&quot;&gt;SDU&lt;/span&gt;&lt;span style=&quot;font-size: 12px;&quot;&gt;计数器加一&lt;/span&gt;" style="rounded=0;whiteSpace=wrap;html=1;fontSize=12;strokeWidth=1;" parent="1" vertex="1">
          <mxGeometry x="297.5" y="280" width="165" height="30" as="geometry" />
        </mxCell>
        <mxCell id="fiQEdym8BqDknh4oqblj-18" value="是否开启阻塞该数据&lt;br&gt;帧所属的流" style="rhombus;whiteSpace=wrap;html=1;fontSize=12;strokeWidth=1;" parent="1" vertex="1">
          <mxGeometry x="493" y="265" width="180" height="60" as="geometry" />
        </mxCell>
        <mxCell id="6sdJ_D_aRxQz65Urevkr-1" value="" style="edgeStyle=orthogonalEdgeStyle;rounded=0;orthogonalLoop=1;jettySize=auto;html=1;fontSize=18;entryX=0.5;entryY=0;entryDx=0;entryDy=0;" edge="1" parent="1" source="6sdJ_D_aRxQz65Urevkr-2" target="6sdJ_D_aRxQz65Urevkr-4">
          <mxGeometry relative="1" as="geometry" />
        </mxCell>
        <mxCell id="6sdJ_D_aRxQz65Urevkr-2" value="&lt;font style=&quot;font-size: 18px;&quot;&gt;开始&lt;/font&gt;" style="strokeWidth=1;html=1;shape=mxgraph.flowchart.terminator;whiteSpace=wrap;fontSize=18;" vertex="1" parent="1">
          <mxGeometry x="-491.5" y="2" width="77" height="44" as="geometry" />
        </mxCell>
        <mxCell id="6sdJ_D_aRxQz65Urevkr-3" value="" style="edgeStyle=orthogonalEdgeStyle;rounded=0;orthogonalLoop=1;jettySize=auto;html=1;fontSize=18;entryX=0.5;entryY=0;entryDx=0;entryDy=0;" edge="1" parent="1" source="6sdJ_D_aRxQz65Urevkr-4" target="6sdJ_D_aRxQz65Urevkr-9">
          <mxGeometry relative="1" as="geometry">
            <mxPoint x="-452.5" y="150" as="targetPoint" />
          </mxGeometry>
        </mxCell>
        <mxCell id="6sdJ_D_aRxQz65Urevkr-4" value="&lt;font style=&quot;font-size: 18px;&quot;&gt;等待数据帧到达&lt;/font&gt;" style="rounded=0;whiteSpace=wrap;html=1;strokeWidth=1;fontSize=18;" vertex="1" parent="1">
          <mxGeometry x="-596" y="69.75" width="287" height="39" as="geometry" />
        </mxCell>
        <mxCell id="6sdJ_D_aRxQz65Urevkr-8" value="Y" style="edgeStyle=orthogonalEdgeStyle;rounded=0;orthogonalLoop=1;jettySize=auto;html=1;fontSize=18;entryX=0.5;entryY=0;entryDx=0;entryDy=0;" edge="1" parent="1" source="6sdJ_D_aRxQz65Urevkr-9" target="6sdJ_D_aRxQz65Urevkr-19">
          <mxGeometry x="-0.955" relative="1" as="geometry">
            <mxPoint as="offset" />
            <mxPoint x="-249" y="104.25" as="targetPoint" />
            <Array as="points">
              <mxPoint x="-133" y="183" />
            </Array>
          </mxGeometry>
        </mxCell>
        <mxCell id="6sdJ_D_aRxQz65Urevkr-30" value="N" style="edgeStyle=orthogonalEdgeStyle;rounded=0;orthogonalLoop=1;jettySize=auto;html=1;fontSize=18;" edge="1" parent="1" source="6sdJ_D_aRxQz65Urevkr-9" target="6sdJ_D_aRxQz65Urevkr-29">
          <mxGeometry x="-0.6261" relative="1" as="geometry">
            <mxPoint as="offset" />
          </mxGeometry>
        </mxCell>
        <mxCell id="6sdJ_D_aRxQz65Urevkr-9" value="&lt;span style=&quot;font-size: 18px;&quot;&gt;该流的流阻塞字段&lt;/span&gt;&lt;br style=&quot;font-size: 18px;&quot;&gt;&lt;span style=&quot;font-size: 18px;&quot;&gt;是否为True&lt;/span&gt;" style="rhombus;whiteSpace=wrap;html=1;strokeWidth=1;fontSize=18;" vertex="1" parent="1">
          <mxGeometry x="-581.13" y="143" width="257.25" height="80.25" as="geometry" />
        </mxCell>
        <mxCell id="6sdJ_D_aRxQz65Urevkr-34" value="" style="edgeStyle=orthogonalEdgeStyle;rounded=0;orthogonalLoop=1;jettySize=auto;html=1;fontSize=18;" edge="1" parent="1" source="6sdJ_D_aRxQz65Urevkr-19" target="6sdJ_D_aRxQz65Urevkr-27">
          <mxGeometry relative="1" as="geometry" />
        </mxCell>
        <mxCell id="6sdJ_D_aRxQz65Urevkr-19" value="丢弃数据帧" style="rounded=0;whiteSpace=wrap;html=1;strokeWidth=1;fontSize=18;" vertex="1" parent="1">
          <mxGeometry x="-277" y="304" width="288" height="48" as="geometry" />
        </mxCell>
        <mxCell id="6sdJ_D_aRxQz65Urevkr-53" value="" style="edgeStyle=orthogonalEdgeStyle;rounded=0;orthogonalLoop=1;jettySize=auto;html=1;fontSize=18;entryX=1;entryY=0.5;entryDx=0;entryDy=0;" edge="1" parent="1" source="6sdJ_D_aRxQz65Urevkr-27" target="6sdJ_D_aRxQz65Urevkr-48">
          <mxGeometry relative="1" as="geometry">
            <mxPoint x="-133" y="539" as="targetPoint" />
            <Array as="points">
              <mxPoint x="-133" y="599" />
            </Array>
          </mxGeometry>
        </mxCell>
        <mxCell id="6sdJ_D_aRxQz65Urevkr-27" value="&lt;span lang=&quot;EN-US&quot; style=&quot;font-size: 18px; font-family: &amp;quot;times new roman&amp;quot;, serif;&quot;&gt;NotPassingSDUCount&lt;/span&gt;&lt;span style=&quot;font-size: 18px;&quot;&gt;计数器加一&lt;/span&gt;" style="rounded=0;whiteSpace=wrap;html=1;strokeWidth=1;fontSize=18;" vertex="1" parent="1">
          <mxGeometry x="-277" y="417" width="288" height="48" as="geometry" />
        </mxCell>
        <mxCell id="6sdJ_D_aRxQz65Urevkr-32" value="N" style="edgeStyle=orthogonalEdgeStyle;rounded=0;orthogonalLoop=1;jettySize=auto;html=1;fontSize=18;" edge="1" parent="1" source="6sdJ_D_aRxQz65Urevkr-29" target="6sdJ_D_aRxQz65Urevkr-31">
          <mxGeometry x="-0.5747" y="1" relative="1" as="geometry">
            <mxPoint as="offset" />
          </mxGeometry>
        </mxCell>
        <mxCell id="6sdJ_D_aRxQz65Urevkr-44" value="Y" style="edgeStyle=orthogonalEdgeStyle;rounded=0;orthogonalLoop=1;jettySize=auto;html=1;fontSize=18;" edge="1" parent="1" source="6sdJ_D_aRxQz65Urevkr-29" target="6sdJ_D_aRxQz65Urevkr-35">
          <mxGeometry x="-0.4144" relative="1" as="geometry">
            <mxPoint as="offset" />
          </mxGeometry>
        </mxCell>
        <mxCell id="6sdJ_D_aRxQz65Urevkr-29" value="&lt;span style=&quot;font-size: 18px&quot;&gt;帧服务数据单元大小超&lt;br&gt;过过滤器&lt;/span&gt;&lt;span style=&quot;font-size: 18px&quot;&gt;限制&lt;/span&gt;" style="rhombus;whiteSpace=wrap;html=1;strokeWidth=1;fontSize=18;" vertex="1" parent="1">
          <mxGeometry x="-590.13" y="275" width="274.25" height="92.25" as="geometry" />
        </mxCell>
        <mxCell id="6sdJ_D_aRxQz65Urevkr-40" value="" style="edgeStyle=orthogonalEdgeStyle;rounded=0;orthogonalLoop=1;jettySize=auto;html=1;fontSize=18;" edge="1" parent="1" source="6sdJ_D_aRxQz65Urevkr-31" target="6sdJ_D_aRxQz65Urevkr-33">
          <mxGeometry relative="1" as="geometry" />
        </mxCell>
        <mxCell id="6sdJ_D_aRxQz65Urevkr-31" value="&lt;span lang=&quot;EN-US&quot; style=&quot;font-size: 18px; font-family: &amp;quot;times new roman&amp;quot;, serif;&quot;&gt;PassingSDUCount&lt;/span&gt;&lt;span style=&quot;font-size: 18px;&quot;&gt;计数器加一&lt;/span&gt;" style="rounded=0;whiteSpace=wrap;html=1;strokeWidth=1;fontSize=18;" vertex="1" parent="1">
          <mxGeometry x="-596" y="417" width="288" height="48" as="geometry" />
        </mxCell>
        <mxCell id="6sdJ_D_aRxQz65Urevkr-49" value="" style="edgeStyle=orthogonalEdgeStyle;rounded=0;orthogonalLoop=1;jettySize=auto;html=1;fontSize=18;" edge="1" parent="1" source="6sdJ_D_aRxQz65Urevkr-33" target="6sdJ_D_aRxQz65Urevkr-48">
          <mxGeometry relative="1" as="geometry" />
        </mxCell>
        <mxCell id="6sdJ_D_aRxQz65Urevkr-33" value="&lt;span style=&quot;font-size: 18px&quot;&gt;将数据帧传入后续组件&lt;/span&gt;" style="rounded=0;whiteSpace=wrap;html=1;strokeWidth=1;fontSize=18;" vertex="1" parent="1">
          <mxGeometry x="-597" y="495" width="288" height="48" as="geometry" />
        </mxCell>
        <mxCell id="6sdJ_D_aRxQz65Urevkr-45" value="Y" style="edgeStyle=orthogonalEdgeStyle;rounded=0;orthogonalLoop=1;jettySize=auto;html=1;fontSize=18;" edge="1" parent="1" source="6sdJ_D_aRxQz65Urevkr-35" target="6sdJ_D_aRxQz65Urevkr-36">
          <mxGeometry relative="1" as="geometry" />
        </mxCell>
        <mxCell id="6sdJ_D_aRxQz65Urevkr-55" value="N" style="edgeStyle=orthogonalEdgeStyle;rounded=0;orthogonalLoop=1;jettySize=auto;html=1;fontSize=18;endArrow=none;endFill=0;" edge="1" parent="1" source="6sdJ_D_aRxQz65Urevkr-35">
          <mxGeometry x="-0.9456" relative="1" as="geometry">
            <mxPoint x="-758" y="599" as="targetPoint" />
            <Array as="points">
              <mxPoint x="-912" y="321" />
              <mxPoint x="-912" y="599" />
            </Array>
            <mxPoint as="offset" />
          </mxGeometry>
        </mxCell>
        <mxCell id="6sdJ_D_aRxQz65Urevkr-35" value="&lt;span style=&quot;font-size: 18px;&quot;&gt;启用流阻塞功能为True&lt;/span&gt;" style="rhombus;whiteSpace=wrap;html=1;strokeWidth=1;fontSize=18;" vertex="1" parent="1">
          <mxGeometry x="-878" y="285" width="240.5" height="72.25" as="geometry" />
        </mxCell>
        <mxCell id="6sdJ_D_aRxQz65Urevkr-51" value="" style="edgeStyle=orthogonalEdgeStyle;rounded=0;orthogonalLoop=1;jettySize=auto;html=1;fontSize=18;entryX=0;entryY=0.5;entryDx=0;entryDy=0;" edge="1" parent="1" source="6sdJ_D_aRxQz65Urevkr-36" target="6sdJ_D_aRxQz65Urevkr-48">
          <mxGeometry relative="1" as="geometry">
            <mxPoint x="-757.75" y="554" as="targetPoint" />
            <Array as="points">
              <mxPoint x="-758" y="599" />
            </Array>
          </mxGeometry>
        </mxCell>
        <mxCell id="6sdJ_D_aRxQz65Urevkr-36" value="&lt;span style=&quot;font-size: 18px&quot;&gt;将数据帧所属的&lt;/span&gt;&lt;span style=&quot;font-size: 18px&quot;&gt;流阻塞设置为TRUE&lt;/span&gt;" style="rounded=0;whiteSpace=wrap;html=1;strokeWidth=1;fontSize=18;" vertex="1" parent="1">
          <mxGeometry x="-892.75" y="409.5" width="270" height="63" as="geometry" />
        </mxCell>
        <mxCell id="6sdJ_D_aRxQz65Urevkr-48" value="&lt;font style=&quot;font-size: 18px&quot;&gt;等待下一数据帧到达&lt;/font&gt;" style="rounded=0;whiteSpace=wrap;html=1;strokeWidth=1;fontSize=18;" vertex="1" parent="1">
          <mxGeometry x="-597" y="573" width="287" height="52" as="geometry" />
        </mxCell>
      </root>
    </mxGraphModel>
  </diagram>
</mxfile>
